<svg width="36" height="36" viewBox="0 0 36 36" fill="none" xmlns="http://www.w3.org/2000/svg">
<path d="M27.5461 9.95249C26.4194 8.82931 24.8934 8.19861 23.3026 8.19861C21.7117 8.19861 20.1857 8.82931 19.0591 9.95249L12.2581 16.755C11.9082 17.1027 11.6308 17.5165 11.4421 17.9722C11.2533 18.428 11.157 18.9167 11.1586 19.41C11.1586 19.9024 11.2556 20.39 11.4442 20.8449C11.6328 21.2998 11.9092 21.7131 12.2576 22.0611C12.6061 22.4091 13.0197 22.685 13.4748 22.8731C13.9299 23.0611 14.4176 23.1576 14.9101 23.157C15.8701 23.157 16.8286 22.794 17.5606 22.062L20.7436 18.8805C21.3053 18.3175 21.6207 17.5547 21.6207 16.7595C21.6207 15.9642 21.3053 15.2015 20.7436 14.6385L15.4396 19.941C15.2987 20.0818 15.1077 20.1609 14.9086 20.1609C14.7094 20.1609 14.5184 20.0818 14.3776 19.941C14.2367 19.8002 14.1576 19.6091 14.1576 19.41C14.1576 19.2108 14.2367 19.0198 14.3776 18.879L21.1801 12.0735C21.7439 11.5124 22.5071 11.1973 23.3026 11.1973C24.0981 11.1973 24.8612 11.5124 25.4251 12.0735C25.9864 12.6367 26.3016 13.3994 26.3016 14.1945C26.3016 14.9896 25.9864 15.7523 25.4251 16.3155L18.6196 23.121L14.8171 26.9235C14.2539 27.4848 13.4912 27.8 12.6961 27.8C11.9009 27.8 11.1382 27.4848 10.5751 26.9235C10.013 26.3607 9.69734 25.5979 9.69734 24.8025C9.69734 24.0071 10.013 23.2443 10.5751 22.6815L10.7176 22.5375C10.0336 21.6155 9.66444 20.498 9.66458 19.35L8.45408 20.5605C7.33035 21.6862 6.69922 23.2119 6.69922 24.8025C6.69922 26.3931 7.33035 27.9187 8.45408 29.0445C9.62258 30.213 11.1601 30.7995 12.6961 30.7995C14.2321 30.7995 15.7696 30.213 16.9381 29.0445L27.5461 18.4365C28.6698 17.3107 29.3009 15.7851 29.3009 14.1945C29.3009 12.6039 28.6698 11.0782 27.5461 9.95249Z" fill="#00799A"/>
</svg>
